<svg width="174" height="58" viewBox="0 0 174 58" fill="none" xmlns="http://www.w3.org/2000/svg">
<path d="M19.5061 0H0.0153809V5.16894H12.905L19.4479 8.72393H0.0153809V20.0287H19.4697L26.0127 23.5837H0.0153809V34.8812H26.0127L32.5556 38.4362V45.5535C40.1673 41.5186 45.0745 33.8489 45.0745 24.3325C45.089 9.99617 34.1114 0 19.5061 0Z" fill="white"/>
<path d="M0.0146484 38.4362V48.6577H19.6435C24.1392 48.6985 28.5758 47.6324 32.5622 45.5534V38.4362H0.0146484Z" fill="#AEDBE9"/>
<path d="M26.0118 23.5837H0V34.8812H26.0118V23.5837Z" fill="#AEDBE9"/>
<path d="M19.4544 8.72388H0V20.0214H19.4544V8.72388Z" fill="#AEDBE9"/>
<path d="M49.4356 42.0425C49.4124 41.4751 49.5062 40.909 49.7109 40.3793C49.9157 39.8497 50.2272 39.3678 50.626 38.9635C51.0248 38.5593 51.5024 38.2413 52.0292 38.0293C52.556 37.8174 53.1208 37.716 53.6885 37.7314C54.2555 37.717 54.8195 37.8192 55.3454 38.0316C55.8714 38.244 56.3481 38.5621 56.7462 38.9663C57.1442 39.3704 57.455 39.852 57.6593 40.3811C57.8637 40.9102 57.9572 41.4757 57.9341 42.0425C57.9561 42.6086 57.8619 43.1733 57.6571 43.7016C57.4523 44.2299 57.1413 44.7105 56.7434 45.1139C56.3455 45.5172 55.8691 45.8347 55.3436 46.0467C54.8182 46.2586 54.2549 46.3606 53.6885 46.3463C53.1215 46.3616 52.5573 46.2604 52.031 46.0489C51.5047 45.8374 51.0274 45.5201 50.6287 45.1166C50.23 44.7131 49.9184 44.2321 49.7132 43.7033C49.5079 43.1745 49.4135 42.6093 49.4356 42.0425Z" fill="white"/>
<path d="M61.7727 31.1521C61.7727 23.2424 67.4214 17.2447 74.9313 17.2447C76.5366 17.1918 78.135 17.4808 79.6202 18.0924C81.1054 18.704 82.4436 19.6244 83.5461 20.7924V17.8263H89.951V44.616C89.951 52.6493 83.9533 58 75.2221 58C69.3407 58 64.8624 55.819 62.1362 51.8932L66.331 47.6984C68.512 50.4901 71.3327 51.8932 75.353 51.8932C80.442 51.8932 83.5607 49.1524 83.5607 44.6233V41.5917C82.4734 42.785 81.1401 43.7281 79.6527 44.3557C78.1653 44.9832 76.5593 45.2804 74.9458 45.2267C67.4214 45.183 61.7727 39.1272 61.7727 31.1521ZM83.9533 31.2102C83.9533 26.4411 80.8636 23.3005 76.2108 23.3005C71.558 23.3005 68.352 26.4993 68.352 31.2102C68.352 35.9211 71.558 39.1272 76.2108 39.1272C80.8636 39.1272 83.9533 35.9866 83.9533 31.2102Z" fill="white"/>
<path d="M95.8833 17.8263H102.288V20.7342C103.858 18.5533 106.301 17.2447 109.558 17.2447C110.881 17.2099 112.194 17.4803 113.396 18.0351C114.597 18.5898 115.655 19.4139 116.486 20.4434L112.299 24.7545C111.802 24.2438 111.202 23.8448 110.539 23.584C109.876 23.3233 109.165 23.2068 108.453 23.2424C104.818 23.2424 102.288 25.4234 102.288 30.2215V45.7647H95.8833V17.8263Z" fill="white"/>
<path d="M115.846 31.85C115.846 23.6495 121.728 17.2447 129.289 17.2447C130.892 17.1999 132.487 17.5014 133.964 18.1287C135.44 18.756 136.764 19.6943 137.845 20.8797V17.7972H144.25V45.7356H137.845V42.7113C136.766 43.899 135.442 44.8388 133.965 45.4663C132.488 46.0938 130.893 46.394 129.289 46.3463C121.757 46.3463 115.846 39.9996 115.846 31.85ZM138.252 31.7919C138.252 26.7901 135.054 23.3006 130.335 23.3006C125.617 23.3006 122.426 26.7901 122.426 31.7919C122.426 36.7936 125.683 40.2904 130.335 40.2904C134.988 40.2904 138.252 36.8008 138.252 31.7919Z" fill="white"/>
<path d="M149.484 34.0674V17.8263H155.926V33.7765C155.926 37.8477 158.019 40.1741 161.691 40.1741C165.362 40.1741 167.448 37.9059 167.448 33.7765V17.8263H173.853V34.0674C173.853 41.3955 168.902 46.3463 161.691 46.3463C154.479 46.3463 149.484 41.2791 149.484 34.0674Z" fill="white"/>
</svg>
